HIERARCHY
ROOT Hips
{
	OFFSET	0.00	0.00	0.00
	CHANNELS 6 Xposition Yposition Zposition Zrotation Xrotation Yrotation
	JOINT LeftUpLeg
	{
		OFFSET	 0.126116	-0.014019	-0.065224
		CHANNELS 3 Zrotation Xrotation Yrotation
		JOINT LeftLeg
		{
			OFFSET	 0.000000	 0.000000	 0.569914
			CHANNELS 3 Zrotation Xrotation Yrotation
			JOINT LeftFoot
			{
				OFFSET	 0.000000	 0.000000	 0.544423
				CHANNELS 3 Zrotation Xrotation Yrotation
				JOINT LeftToeBase
				{
					OFFSET	 0.000000	 0.000000	 0.207117
					CHANNELS 3 Zrotation Xrotation Yrotation
					End Site
					{
						OFFSET	 0.000000	 0.000000	 0.207117
					}
				}
			}
		}
	}
	JOINT RightUpLeg
	{
		OFFSET	-0.124023	-0.008373	-0.065224
		CHANNELS 3 Zrotation Xrotation Yrotation
		JOINT RightLeg
		{
			OFFSET	 0.000000	 0.000000	 0.570047
			CHANNELS 3 Zrotation Xrotation Yrotation
			JOINT RightFoot
			{
				OFFSET	 0.000000	 0.000000	 0.544354
				CHANNELS 3 Zrotation Xrotation Yrotation
				JOINT RightToeBase
				{
					OFFSET	 0.000000	 0.000000	 0.207540
					CHANNELS 3 Zrotation Xrotation Yrotation
					End Site
					{
						OFFSET	 0.000000	 0.000000	 0.207540
					}
				}
			}
		}
	}
	JOINT Spine
	{
		OFFSET	 0.000184	-0.007763	 0.117403
		CHANNELS 3 Zrotation Xrotation Yrotation
		JOINT Spine1
		{
			OFFSET	 0.000000	 0.000000	 0.137269
			CHANNELS 3 Zrotation Xrotation Yrotation
			JOINT Spine2
			{
				OFFSET	 0.000000	 0.000000	 0.156879
				CHANNELS 3 Zrotation Xrotation Yrotation
				JOINT LeftShoulder
				{
					OFFSET	 0.080501	-0.002496	 0.160144
					CHANNELS 3 Zrotation Xrotation Yrotation
					JOINT LeftArm
					{
						OFFSET	 0.000000	 0.000000	 0.164363
						CHANNELS 3 Zrotation Xrotation Yrotation
						JOINT LeftForeArm
						{
							OFFSET	 0.000000	 0.000000	 0.364576
							CHANNELS 3 Zrotation Xrotation Yrotation
							JOINT LeftHand
							{
								OFFSET	 0.000000	 0.000000	 0.360812
								CHANNELS 3 Zrotation Xrotation Yrotation
								JOINT LeftHandIndex1
								{
									OFFSET	 0.000000	 0.000000	 0.086006
									CHANNELS 3 Zrotation Xrotation Yrotation
									JOINT LeftHandIndex2
									{
										OFFSET	 0.000000	 0.000000	 0.047236
										CHANNELS 3 Zrotation Xrotation Yrotation
										JOINT LeftHandIndex3
										{
											OFFSET	-0.004284	-0.000551	 0.038166
											CHANNELS 3 Zrotation Xrotation Yrotation
											End Site
											{
												OFFSET	-0.004284	-0.000551	 0.038166
											}
										}
									}
								}
							}
						}
					}
				}
				JOINT Neck
				{
					OFFSET	 0.000000	 0.000000	 0.176489
					CHANNELS 3 Zrotation Xrotation Yrotation
					JOINT Head
					{
						OFFSET	 0.000000	-0.001747	 0.077940
						CHANNELS 3 Zrotation Xrotation Yrotation
						End Site
						{
							OFFSET	 0.000000	-0.001747	 0.077940
						}
					}
				}
				JOINT RightShoulder
				{
					OFFSET	-0.080363	 0.000306	 0.159706
					CHANNELS 3 Zrotation Xrotation Yrotation
					JOINT RightArm
					{
						OFFSET	 0.000000	 0.000000	 0.164196
						CHANNELS 3 Zrotation Xrotation Yrotation
						JOINT RightForeArm
						{
							OFFSET	 0.000000	 0.000000	 0.365611
							CHANNELS 3 Zrotation Xrotation Yrotation
							JOINT RightHand
							{
								OFFSET	 0.000000	 0.000000	 0.360648
								CHANNELS 3 Zrotation Xrotation Yrotation
								JOINT RightHandIndex1
								{
									OFFSET	 0.000000	 0.000000	 0.069977
									CHANNELS 3 Zrotation Xrotation Yrotation
									JOINT RightHandIndex2
									{
										OFFSET	 0.000000	 0.000000	 0.052305
										CHANNELS 3 Zrotation Xrotation Yrotation
										JOINT RightHandIndex3
										{
											OFFSET	 0.009002	-0.000782	 0.042196
											CHANNELS 3 Zrotation Xrotation Yrotation
											End Site
											{
												OFFSET	 0.009002	-0.000782	 0.042196
											}
										}
									}
								}
							}
						}
					}
				}
			}
		}
	}
}
MOTION
Frames:    13
Frame Time: 0.03333334
-0.110889	-3.504423	 0.996008	-12.613070	 2.117176	 0.430412	 2.341982	-34.238730	 172.469700	-5.375275	-66.891690	-5.677230	 176.613500	 87.349450	-179.259400	-2.337969	 35.967070	-0.172358	 0.157238	-35.722680	-177.553600	 1.543210	-70.933430	 4.340665	-177.377400	 85.812690	 179.157900	 2.405716	 20.758270	-0.158013	 8.296021	 13.534980	 0.194461	 11.149960	 6.139447	-2.286187	 13.643370	 3.568839	 0.480371	-129.544000	 89.468080	-138.864900	 47.890240	 61.179710	-76.535880	-15.007840	-1.579979	-22.318560	 1.227401	-2.234753	-5.358109	-3.812334	 37.924440	-2.927599	-2.450526	 36.184240	 0.754587	-1.378229	 35.397820	-2.634230	 1.707978	 2.345731	-3.098858	 4.197016	 7.189895	 2.603610	 94.141010	 85.991910	 171.188800	-54.052290	 70.734310	 73.201480	-4.661783	-11.448380	 23.968860	-27.562820	-3.211527	 9.537002	 6.437017	 35.671460	-0.771858	 2.830251	 35.756010	-7.813440	-2.350882	 35.473990	 5.254307
-0.105140	-3.500831	 1.018061	-14.351360	 4.951978	-0.139794	 3.054252	-35.452460	 173.198200	-4.293998	-63.726790	-3.918688	 172.930000	 88.705180	-175.062800	-2.358004	 33.374390	-0.110372	 1.275396	-37.299560	-177.226500	 0.166207	-67.505040	 3.694163	-174.666400	 87.271000	 176.448200	 2.406782	 19.715000	-0.178756	 11.549110	 13.874220	 0.274644	 10.470890	 6.210927	-2.115920	 13.025390	 3.581338	 0.456993	-120.519000	 89.340920	-147.933600	 44.502330	 60.895970	-74.644640	-15.449480	-1.577034	-21.035180	 1.489360	-2.263020	-5.353688	-3.812334	 37.924440	-2.927599	-2.450526	 36.184240	 0.754587	-1.378229	 35.397820	-2.634230	 2.042474	 2.018572	-2.915002	 4.236914	 6.956754	 3.756961	 94.420410	 86.063440	 170.752200	-53.944390	 71.596570	 72.407600	-4.520893	-10.975600	 22.947670	-27.847030	-3.219178	 9.523836	 6.437017	 35.671460	-0.771858	 2.830251	 35.756010	-7.813440	-2.350882	 35.473990	 5.254307
-0.100820	-3.499886	 1.034612	-15.816850	 6.811938	-0.647267	 4.104314	-35.694440	 173.946900	-4.047266	-61.012380	-2.795885	 139.505500	 89.749770	-141.231900	-2.367808	 31.877670	-0.075882	 1.890710	-38.274250	-176.678800	-1.911976	-65.064220	 2.085515	-169.559800	 88.551120	 170.745900	 2.407114	 19.253840	-0.187870	 14.705640	 14.627000	 0.515763	 9.649180	 6.527041	-1.973511	 12.117490	 3.595187	 0.423419	-118.168800	 89.302830	-150.344100	 41.933010	 60.904580	-74.456290	-15.668800	-1.795637	-19.710690	 2.561832	-2.302322	-5.340507	-3.812334	 37.924440	-2.927599	-2.450526	 36.184240	 0.754587	-1.378229	 35.397820	-2.634230	 2.266053	 1.871463	-2.774242	 4.143795	 6.854923	 4.212005	 94.594440	 86.125210	 170.517900	-53.244610	 72.640230	 70.967540	-4.812638	-10.466170	 21.423730	-28.704510	-3.233955	 9.490326	 6.437017	 35.671460	-0.771858	 2.830251	 35.756010	-7.813440	-2.350882	 35.473990	 5.254307
-0.099792	-3.499558	 1.045293	-15.811770	 8.057150	-0.680554	 4.460766	-36.179620	 174.120700	-3.434093	-59.211060	-1.913802	 25.498880	 89.629380	-26.810100	-2.368953	 31.688680	-0.071599	 1.366430	-38.540080	-176.579000	-2.288129	-63.110360	 1.276845	-162.038200	 89.150960	 162.889500	 2.406847	 19.625060	-0.180533	 16.880580	 14.817210	 0.459450	 8.406797	 6.748225	-2.094857	 10.926300	 3.665403	 0.374809	-121.016100	 89.400300	-147.703100	 40.810570	 61.184340	-75.478320	-16.226250	-1.902851	-18.802700	 3.269306	-2.332606	-5.329272	-3.812334	 37.924440	-2.927599	-2.450526	 36.184240	 0.754587	-1.378229	 35.397820	-2.634230	 2.126751	 2.024245	-2.736228	 3.964810	 6.844940	 3.998646	 94.609220	 86.081540	 170.410100	-51.344940	 73.969080	 68.119300	-5.029035	-9.927942	 19.815330	-29.729140	-3.249997	 9.450271	 6.437017	 35.671460	-0.771858	 2.830251	 35.756010	-7.813440	-2.350882	 35.473990	 5.254307
-0.101121	-3.502207	 1.053210	-15.246690	 8.856795	-0.669581	 4.383483	-36.271500	 174.109200	-2.718299	-58.047080	-1.308534	 13.130010	 89.298630	-14.112410	-2.371716	 31.222380	-0.061064	 0.830192	-38.377160	-176.721800	-1.247891	-61.823740	 1.778922	-155.858100	 89.371620	 157.012800	 2.404956	 21.335200	-0.146477	 18.812970	 14.840700	 0.595738	 6.877643	 6.791479	-2.327001	 9.385754	 3.644977	 0.323385	-144.279800	 89.640630	-124.604300	 41.487280	 61.070360	-77.481580	-16.567640	-1.922611	-19.415400	 3.320493	-2.319825	-5.331177	-3.812334	 37.924440	-2.927599	-2.450526	 36.184240	 0.754587	-1.378229	 35.397820	-2.634230	 1.876240	 1.992249	-2.994960	 3.646462	 6.934405	 3.640230	 94.239860	 85.804930	 170.661200	-48.292350	 75.593000	 63.892790	-4.879488	-9.549577	 18.644670	-30.721420	-3.261300	 9.411996	 6.437017	 35.671460	-0.771858	 2.830251	 35.756010	-7.813440	-2.350882	 35.473990	 5.254307
-0.103931	-3.507648	 1.058074	-14.542700	 9.329176	-0.734759	 4.149854	-36.196450	 174.176200	-2.236425	-57.191540	-1.040520	 9.799104	 89.042840	-10.633910	-2.375001	 30.640090	-0.048006	 0.821323	-38.116360	-176.860000	-0.020959	-61.087750	 2.835268	-155.147800	 89.395100	 156.918600	 2.399766	 23.989750	-0.092621	 20.414720	 14.577680	 0.954287	 5.228071	 6.740484	-2.385444	 7.638904	 3.531294	 0.270594	 169.538900	 89.719540	-78.559950	 44.052610	 60.518960	-80.165620	-16.467390	-1.842365	-21.296500	 2.774779	-2.270924	-5.343738	-3.812334	 37.924440	-2.927599	-2.450526	 36.184240	 0.754587	-1.378229	 35.397820	-2.634230	 1.659002	 1.910374	-3.188095	 3.265788	 6.832291	 3.226533	 93.963230	 85.587270	 170.860700	-46.391520	 76.602970	 60.682970	-4.633928	-9.288692	 18.192430	-30.975720	-3.264808	 9.401418	 6.437017	 35.671460	-0.771858	 2.830251	 35.756010	-7.813440	-2.350882	 35.473990	 5.254307
-0.107112	-3.515018	 1.060665	-13.866590	 9.465444	-0.779229	 3.964591	-35.745370	 174.262300	-1.966358	-56.588060	-0.941284	 9.076369	 89.010670	-9.865469	-2.374200	 30.783040	-0.051208	 0.822299	-37.402390	-176.956600	 0.595939	-60.652740	 3.381906	-165.567300	 89.021010	 167.692900	 2.398892	 24.330630	-0.085611	 21.668260	 14.337770	 1.296443	 3.621172	 6.754976	-2.351267	 5.818437	 3.488183	 0.208171	 143.399300	 89.670750	-52.517300	 46.727260	 59.734010	-82.733410	-15.900200	-1.764243	-22.707670	 2.405163	-2.237426	-5.350875	-3.812334	 37.924440	-2.927599	-2.450526	 36.184240	 0.754587	-1.378229	 35.397820	-2.634230	 1.530655	 1.814682	-3.451571	 2.793070	 6.793975	 3.251659	 93.796910	 85.483220	 171.041900	-46.275710	 76.953110	 59.468590	-4.758905	-9.257028	 18.266920	-31.009320	-3.265529	 9.398742	 6.437017	 35.671460	-0.771858	 2.830251	 35.756010	-7.813440	-2.350882	 35.473990	 5.254307
-0.109905	-3.521939	 1.061520	-12.938260	 9.528749	-0.606662	 3.685768	-35.497270	 174.132800	-1.447574	-56.224540	-0.696083	 10.646040	 89.209690	-11.292290	-2.374702	 30.693670	-0.049206	 0.358984	-36.887110	-177.164000	 1.025745	-60.282920	 3.428111	-169.831200	 88.746030	 172.022100	 2.399501	 24.096990	-0.090418	 22.398680	 14.044480	 1.278923	 1.999051	 6.904299	-2.334492	 3.997820	 3.589494	 0.139431	 142.196100	 89.680400	-51.437320	 48.951790	 59.293430	-84.550100	-14.997370	-1.849823	-23.294460	 2.667029	-2.230517	-5.350372	-3.812334	 37.924440	-2.927599	-2.450526	 36.184240	 0.754587	-1.378229	 35.397820	-2.634230	 1.393956	 1.792805	-3.485641	 2.315552	 6.925152	 3.246664	 93.873630	 85.548870	 170.988300	-47.894390	 76.712510	 60.574630	-5.395713	-9.332226	 18.446500	-31.151790	-3.265472	 9.396164	 6.437017	 35.671460	-0.771858	 2.830251	 35.756010	-7.813440	-2.350882	 35.473990	 5.254307
-0.112663	-3.528975	 1.061237	-12.209010	 9.461461	-0.516175	 3.577815	-35.045640	 174.048700	-0.907971	-56.042510	-0.331776	 16.238150	 89.527280	-16.658290	-2.374691	 30.696170	-0.049267	-0.109149	-36.349520	-177.222100	 1.439180	-60.071810	 3.457189	-172.373000	 88.502620	 174.603800	 2.399943	 23.918670	-0.094080	 22.971440	 13.819400	 1.555741	 0.354689	 7.085566	-2.286228	 1.975896	 3.726155	 0.066532	 135.563900	 89.652260	-44.844010	 51.244410	 58.958450	-86.335020	-14.309350	-1.861703	-23.362550	 2.789170	-2.233318	-5.349277	-3.812334	 37.924440	-2.927599	-2.450526	 36.184240	 0.754587	-1.378229	 35.397820	-2.634230	 1.283577	 1.727969	-3.549368	 1.739204	 7.165639	 2.980519	 93.819280	 85.566060	 171.137600	-50.449840	 76.034660	 63.031380	-5.791110	-9.366365	 18.875310	-30.779910	-3.263845	 9.407498	 6.437017	 35.671460	-0.771858	 2.830251	 35.756010	-7.813440	-2.350882	 35.473990	 5.254307
-0.115584	-3.535116	 1.060082	-11.474670	 9.361833	-0.336606	 3.451395	-34.832220	 173.930200	-0.411410	-56.114940	-0.014386	 34.895480	 89.791580	-35.112900	-2.371020	 31.341590	-0.063745	-0.495438	-35.813290	-177.409800	 2.038111	-60.051110	 3.718061	-173.687700	 88.289930	 176.075300	 2.400410	 23.723580	-0.098078	 23.155480	 13.646140	 1.777258	-1.279403	 7.289493	-2.259577	-0.033611	 3.890275	-0.001084	 124.862900	 89.573880	-34.178130	 53.266700	 58.377470	-87.373760	-13.010920	-1.921137	-23.045670	 3.112640	-2.241523	-5.345966	-3.812334	 37.924440	-2.927599	-2.450526	 36.184240	 0.754587	-1.378229	 35.397820	-2.634230	 1.186279	 1.737078	-3.645030	 1.164405	 7.363080	 2.727124	 93.692860	 85.542010	 171.373700	-52.277030	 75.361690	 65.068700	-5.771319	-9.447002	 19.520370	-30.209280	-3.259260	 9.424159	 6.437017	 35.671460	-0.771858	 2.830251	 35.756010	-7.813440	-2.350882	 35.473990	 5.254307
-0.118675	-3.541068	 1.058301	-10.569930	 9.299772	-0.061480	 3.204327	-34.745960	 173.665000	 0.087407	-56.422540	 0.224573	 138.980500	 89.838070	-139.048100	-2.368883	 31.700730	-0.071869	-0.916187	-35.254040	-177.708300	 2.905327	-60.178250	 4.196300	-174.791100	 88.056200	 177.443000	 2.400251	 23.791200	-0.096695	 22.909240	 13.455950	 1.869769	-3.094200	 7.475874	-2.268248	-2.232944	 4.017937	-0.069496	 116.655300	 89.470660	-26.019290	 55.210090	 57.923770	-87.861340	-11.357590	-2.059414	-22.500800	 3.740942	-2.253537	-5.339842	-3.812334	 37.924440	-2.927599	-2.450526	 36.184240	 0.754587	-1.378229	 35.397820	-2.634230	 1.026304	 1.799824	-3.707363	 0.522064	 7.418688	 2.559438	 93.546820	 85.495240	 171.618100	-53.493940	 74.662690	 66.908230	-5.491621	-9.665954	 20.464750	-29.627290	-3.253301	 9.446218	 6.437017	 35.671460	-0.771858	 2.830251	 35.756010	-7.813440	-2.350882	 35.473990	 5.254307
-0.120674	-3.545446	 1.056836	-9.886786	 9.249095	 0.061362	 3.025557	-34.738380	 173.487300	 0.229626	-56.744790	 0.215668	 167.875500	 89.574800	-167.957900	-2.366680	 32.059060	-0.080024	-1.222733	-34.848860	-177.820000	 3.717171	-60.362500	 4.703602	-175.455100	 87.826330	 178.379500	 2.399656	 24.034280	-0.091706	 22.430830	 13.304630	 2.008413	-4.593649	 7.579076	-2.225031	-4.084037	 4.053236	-0.125886	 113.800200	 89.415830	-23.174280	 56.747510	 57.773900	-88.110160	-10.308140	-2.103853	-21.823430	 4.119301	-2.273482	-5.333294	-3.812334	 37.924440	-2.927599	-2.450526	 36.184240	 0.754587	-1.378229	 35.397820	-2.634230	 0.848119	 1.892416	-3.643808	-0.030107	 7.289892	 2.334432	 93.444440	 85.471340	 171.806800	-54.256110	 74.112540	 68.505000	-5.015599	-9.846409	 21.313470	-29.099010	-3.248477	 9.461699	 6.437017	 35.671460	-0.771858	 2.830251	 35.756010	-7.813440	-2.350882	 35.473990	 5.254307
-0.121820	-3.549667	 1.056308	-9.352316	 9.193988	 0.162250	 2.887606	-34.605020	 173.423100	 0.323514	-56.997120	 0.188110	 174.197300	 89.276920	-174.308300	-2.365853	 32.192070	-0.083056	-1.413520	-34.469330	-177.850400	 4.388271	-60.520700	 5.169001	-175.886400	 87.648740	 179.056100	 2.399181	 24.220410	-0.087881	 21.786610	 13.155420	 2.091619	-5.979695	 7.604932	-2.150658	-5.874125	 4.007616	-0.183489	 113.637400	 89.403570	-22.979360	 58.179330	 57.794590	-88.159840	-8.940598	-2.248509	-20.825510	 4.956645	-2.304171	-5.319790	-3.812334	 37.924440	-2.927599	-2.450526	 36.184240	 0.754587	-1.378229	 35.397820	-2.634230	 0.718277	 2.041305	-3.490501	-0.586168	 6.979750	 2.153518	 93.399860	 85.506520	 171.962400	-54.751330	 73.566920	 69.782330	-4.579176	-10.006040	 22.134000	-28.601270	-3.243023	 9.476324	 6.437017	 35.671460	-0.771858	 2.830251	 35.756010	-7.813440	-2.350882	 35.473990	 5.254307
